<?xml version="1.0" encoding="utf-8"?>
<!-- Generator: Adobe Illustrator 21.0.0, SVG Export Plug-In . SVG Version: 6.00 Build 0)  -->
<svg version="1.1" id="Layer_1" xmlns="http://www.w3.org/2000/svg" xmlns:xlink="http://www.w3.org/1999/xlink" x="0px" y="0px"
	 viewBox="0 0 864 864" style="enable-background:new 0 0 864 864;" xml:space="preserve">
<style type="text/css">
	.st0{fill:#C5E7E9;stroke:#000001;stroke-width:0.1;stroke-miterlimit:10;}
</style>
<path class="st0" d="M772.9,322.9c-1.1,0.7-2.5,0.6-3.4-0.4c-13.1-15.2-31.1-23.8-52.9-19.4c-27,5.5-40.1,25.3-44.5,46.4
	c-0.3,1.3-1.4,2.1-2.7,2c-10.9-1-22.9,1.6-35.4,9.2c-0.7,0.5-1.6,0.5-2.4,0.1c-0.8-0.4-1.3-1-1.5-1.9
	c-9.9-56.2-76.5-60.5-102.2-22.7c-3.1,4.6-3.4,10.1-6.4,15.1c-0.4,0.7-1,1.1-1.8,1.2c-0.8,0.1-1.5-0.1-2.1-0.6
	c-11.8-10.4-26.3-16.5-43.5-13.3c-9.6,1.8-17.9,5.4-24.8,10.1c-1.1,0.8-2.6,0.5-3.5-0.5c-13.5-16.9-37.2-25.4-63.2-17.5
	c-1.3,0.4-2.6-0.2-3.1-1.4c-7.8-18.4-22.3-32.2-44.5-34.7c-31.4-3.5-51.3,16.6-60.8,39c-0.4,1-1.3,1.6-2.3,1.6
	c-16.7,0.2-29.4,5.3-38.4,13.3c-0.7,0.6-1.7,0.8-2.6,0.5c-0.9-0.3-1.5-1.1-1.7-2c-8.8-54.6-73.7-61.1-100.7-25
	c-3.3,4.4-3.8,9.9-7.1,14.8c-0.4,0.6-1.1,1-1.8,1.1c-0.8,0.1-1.5-0.2-2-0.7c-11.3-10.9-25.6-17.7-42.8-15.2
	c-18.3,2.7-34.2,13.3-43.7,29c-9.6,15.8-8.1,29.8-8.1,47.2c0,25.3,0,50.6,0,75.8c0,0,839.3,0,839.3,0c0-16.3,0-32.6,0-48.9
	c0-24,5-53.6-2.4-76.2c-3.6-11.2-10.7-21.2-20.4-28C819.3,306.8,792.7,309.2,772.9,322.9z"/>
</svg>
